HIERARCHY
ROOT Hips
{
	OFFSET 0.000000 83.214638 0.000000
	CHANNELS 6 Xposition Yposition Zposition Xrotation Yrotation Zrotation
	JOINT Pelvis
	{
		OFFSET 0.000000 0.000000 0.000000
		CHANNELS 3 Xrotation Yrotation Zrotation
		JOINT LeftUpLeg
		{
			OFFSET 8.479700 -4.795502 -0.379100
			CHANNELS 3 Xrotation Yrotation Zrotation
			JOINT LeftLeg
			{
				OFFSET 0.024144 -32.555107 0.112900
				CHANNELS 3 Xrotation Yrotation Zrotation
				JOINT LeftFoot
				{
					OFFSET -0.024144 -32.638630 -3.012600
					CHANNELS 3 Xrotation Yrotation Zrotation
					JOINT LeftToeBase
					{
						OFFSET 0.970200 -13.225400 11.864200
						CHANNELS 3 Xrotation Yrotation Zrotation
						End Site
						{
							OFFSET 0.000000 12.319262 0.000000
						}
					}
					JOINT LFootTongue
					{
						OFFSET 1.142400 -1.059800 6.665200
						CHANNELS 3 Xrotation Yrotation Zrotation
						End Site
						{
							OFFSET 0.000000 12.319262 0.000000
						}
					}
				}
				JOINT LeftPantLeg
				{
					OFFSET 0.918482 -16.533964 -2.284700
					CHANNELS 3 Xrotation Yrotation Zrotation
					End Site
					{
						OFFSET 0.350399 24.744368 0.000000
					}
				}
			}
		}
		JOINT RightUpLeg
		{
			OFFSET -8.479700 -4.795502 -0.379100
			CHANNELS 3 Xrotation Yrotation Zrotation
			JOINT RightLeg
			{
				OFFSET -0.023144 -32.555092 0.112900
				CHANNELS 3 Xrotation Yrotation Zrotation
				JOINT RightFoot
				{
					OFFSET 0.023144 -32.638641 -3.012700
					CHANNELS 3 Xrotation Yrotation Zrotation
					JOINT RightToeBase
					{
						OFFSET -0.970200 -13.225400 11.864200
						CHANNELS 3 Xrotation Yrotation Zrotation
						End Site
						{
							OFFSET 0.000000 12.319244 0.000000
						}
					}
					JOINT RFootTongue
					{
						OFFSET -1.142200 -1.059800 6.665200
						CHANNELS 3 Xrotation Yrotation Zrotation
						End Site
						{
							OFFSET 0.000000 12.319243 0.000000
						}
					}
				}
				JOINT RightPantLeg
				{
					OFFSET -0.919482 -16.533978 -2.284800
					CHANNELS 3 Xrotation Yrotation Zrotation
					End Site
					{
						OFFSET -0.350400 24.744419 0.000000
					}
				}
			}
		}
	}
	JOINT Spine
	{
		OFFSET 0.000000 7.722000 1.166200
		CHANNELS 3 Xrotation Yrotation Zrotation
		JOINT Spine1
		{
			OFFSET 0.000000 12.024101 0.248800
			CHANNELS 3 Xrotation Yrotation Zrotation
			JOINT Spine2
			{
				OFFSET 0.000000 11.502998 -0.491200
				CHANNELS 3 Xrotation Yrotation Zrotation
				JOINT Neck
				{
					OFFSET 0.000000 18.430702 -3.123100
					CHANNELS 3 Xrotation Yrotation Zrotation
					JOINT Head
					{
						OFFSET 0.000000 9.051102 1.034000
						CHANNELS 3 Xrotation Yrotation Zrotation
						JOINT HairB
						{
							OFFSET 0.208400 24.786102 24.822300
							CHANNELS 3 Xrotation Yrotation Zrotation
							End Site
							{
								OFFSET 0.000000 32.263779 0.000000
							}
						}
						JOINT HairA
						{
							OFFSET -7.081100 24.428299 23.196600
							CHANNELS 3 Xrotation Yrotation Zrotation
							End Site
							{
								OFFSET 0.000000 32.263779 0.000000
							}
						}
						JOINT Hat
						{
							OFFSET 16.728800 15.048294 -15.439601
							CHANNELS 3 Xrotation Yrotation Zrotation
							End Site
							{
								OFFSET 0.000000 32.263779 0.000000
							}
						}
					}
				}
				JOINT LeftShoulder
				{
					OFFSET 6.197800 13.665199 -4.064700
					CHANNELS 3 Xrotation Yrotation Zrotation
					JOINT LeftArm
					{
						OFFSET 7.778100 -0.187103 -1.709300
						CHANNELS 3 Xrotation Yrotation Zrotation
						JOINT LeftForeArm
						{
							OFFSET 22.049376 0.000000 0.000000
							CHANNELS 3 Xrotation Yrotation Zrotation
							JOINT LeftHand
							{
								OFFSET 23.009392 0.000000 0.000000
								CHANNELS 3 Xrotation Yrotation Zrotation
								JOINT LeftHandThumb1
								{
									OFFSET 3.507191 -2.063065 3.133727
									CHANNELS 3 Xrotation Yrotation Zrotation
									JOINT LeftHandThumb2
									{
										OFFSET 3.101337 -1.790558 1.790558
										CHANNELS 3 Xrotation Yrotation Zrotation
										JOINT LeftHandThumb3
										{
											OFFSET 3.058640 -1.765907 1.765906
											CHANNELS 3 Xrotation Yrotation Zrotation
											End Site
											{
												OFFSET -0.415260 3.926476 -0.049563
											}
										}
									}
								}
								JOINT LeftHandIndex1
								{
									OFFSET 11.334419 -0.901459 3.706815
									CHANNELS 3 Xrotation Yrotation Zrotation
									JOINT LeftHandIndex2
									{
										OFFSET 3.283112 0.000000 0.000000
										CHANNELS 3 Xrotation Yrotation Zrotation
										JOINT LeftHandIndex3
										{
											OFFSET 3.323853 0.000000 0.000000
											CHANNELS 3 Xrotation Yrotation Zrotation
											End Site
											{
												OFFSET -1.135597 3.097809 0.402452
											}
										}
									}
								}
								JOINT LeftHandMiddle1
								{
									OFFSET 11.335861 0.000000 0.000000
									CHANNELS 3 Xrotation Yrotation Zrotation
									JOINT LeftHandMiddle2
									{
										OFFSET 3.410492 0.000000 0.000000
										CHANNELS 3 Xrotation Yrotation Zrotation
										JOINT LeftHandMiddle3
										{
											OFFSET 3.312172 0.000000 0.000000
											CHANNELS 3 Xrotation Yrotation Zrotation
											End Site
											{
												OFFSET -1.150200 3.080154 0.400270
											}
										}
									}
								}
								JOINT LeftHandRing1
								{
									OFFSET 11.514786 -0.013176 -3.003090
									CHANNELS 3 Xrotation Yrotation Zrotation
									JOINT LeftHandRing2
									{
										OFFSET 3.053307 0.000000 0.000000
										CHANNELS 3 Xrotation Yrotation Zrotation
										JOINT LeftHandRing3
										{
											OFFSET 3.295807 0.000000 0.000000
											CHANNELS 3 Xrotation Yrotation Zrotation
											End Site
											{
												OFFSET -1.281006 3.013344 0.375733
											}
										}
									}
								}
								JOINT LeftHandPinky1
								{
									OFFSET 10.518692 -0.960396 -5.730441
									CHANNELS 3 Xrotation Yrotation Zrotation
									JOINT LeftHandPinky2
									{
										OFFSET 2.861649 0.000000 0.000000
										CHANNELS 3 Xrotation Yrotation Zrotation
										JOINT LeftHandPinky3
										{
											OFFSET 2.863380 0.000000 0.000000
											CHANNELS 3 Xrotation Yrotation Zrotation
											End Site
											{
												OFFSET -0.843597 2.711159 0.369971
											}
										}
									}
								}
							}
							JOINT LSleeve
							{
								OFFSET 6.676277 -0.344902 -1.011730
								CHANNELS 3 Xrotation Yrotation Zrotation
								End Site
								{
									OFFSET 0.000000 14.885353 0.000000
								}
							}
						}
					}
				}
				JOINT RightShoulder
				{
					OFFSET -6.197800 13.665199 -4.064700
					CHANNELS 3 Xrotation Yrotation Zrotation
					JOINT RightArm
					{
						OFFSET -7.778100 -0.187103 -1.709300
						CHANNELS 3 Xrotation Yrotation Zrotation
						JOINT RightForeArm
						{
							OFFSET -22.049376 0.000000 0.000000
							CHANNELS 3 Xrotation Yrotation Zrotation
							JOINT RightHand
							{
								OFFSET -23.009392 0.000000 0.000000
								CHANNELS 3 Xrotation Yrotation Zrotation
								JOINT RightHandThumb1
								{
									OFFSET -3.507191 -2.063065 3.133727
									CHANNELS 3 Xrotation Yrotation Zrotation
									JOINT RightHandThumb2
									{
										OFFSET -3.101337 -1.790558 1.790558
										CHANNELS 3 Xrotation Yrotation Zrotation
										JOINT RightHandThumb3
										{
											OFFSET -3.058640 -1.765907 1.765906
											CHANNELS 3 Xrotation Yrotation Zrotation
											End Site
											{
												OFFSET 0.415260 3.926476 -0.049563
											}
										}
									}
								}
								JOINT RightHandIndex1
								{
									OFFSET -11.334419 -0.901459 3.706815
									CHANNELS 3 Xrotation Yrotation Zrotation
									JOINT RightHandIndex2
									{
										OFFSET -3.283112 0.000000 0.000000
										CHANNELS 3 Xrotation Yrotation Zrotation
										JOINT RightHandIndex3
										{
											OFFSET -3.323853 0.000000 0.000000
											CHANNELS 3 Xrotation Yrotation Zrotation
											End Site
											{
												OFFSET 1.135597 3.097809 0.402452
											}
										}
									}
								}
								JOINT RightHandMiddle1
								{
									OFFSET -11.335861 0.000000 0.000000
									CHANNELS 3 Xrotation Yrotation Zrotation
									JOINT RightHandMiddle2
									{
										OFFSET -3.410492 0.000000 0.000000
										CHANNELS 3 Xrotation Yrotation Zrotation
										JOINT RightHandMiddle3
										{
											OFFSET -3.312172 0.000000 0.000000
											CHANNELS 3 Xrotation Yrotation Zrotation
											End Site
											{
												OFFSET 1.150200 3.080154 0.400270
											}
										}
									}
								}
								JOINT RightHandRing1
								{
									OFFSET -11.514786 -0.013176 -3.003090
									CHANNELS 3 Xrotation Yrotation Zrotation
									JOINT RightHandRing2
									{
										OFFSET -3.053307 0.000000 0.000000
										CHANNELS 3 Xrotation Yrotation Zrotation
										JOINT RightHandRing3
										{
											OFFSET -3.295807 0.000000 0.000000
											CHANNELS 3 Xrotation Yrotation Zrotation
											End Site
											{
												OFFSET 1.281006 3.013344 0.375733
											}
										}
									}
								}
								JOINT RightHandPinky1
								{
									OFFSET -10.518692 -0.960396 -5.730441
									CHANNELS 3 Xrotation Yrotation Zrotation
									JOINT RightHandPinky2
									{
										OFFSET -2.861649 0.000000 0.000000
										CHANNELS 3 Xrotation Yrotation Zrotation
										JOINT RightHandPinky3
										{
											OFFSET -2.863380 0.000000 0.000000
											CHANNELS 3 Xrotation Yrotation Zrotation
											End Site
											{
												OFFSET 0.843597 2.711159 0.369971
											}
										}
									}
								}
							}
							JOINT RSleeve
							{
								OFFSET -6.676277 -0.344902 -1.011730
								CHANNELS 3 Xrotation Yrotation Zrotation
								End Site
								{
									OFFSET 0.000000 14.885353 0.000000
								}
							}
						}
					}
				}
				JOINT Backpack
				{
					OFFSET 0.000000 -2.471497 36.677502
					CHANNELS 3 Xrotation Yrotation Zrotation
					End Site
					{
						OFFSET 0.000000 20.427315 0.000000
					}
				}
				JOINT Hood
				{
					OFFSET 0.000000 18.754097 -10.431000
					CHANNELS 3 Xrotation Yrotation Zrotation
					JOINT Hood1
					{
						OFFSET 0.000000 -5.011002 -7.685901
						CHANNELS 3 Xrotation Yrotation Zrotation
						End Site
						{
							OFFSET 0.000000 9.175140 0.000000
						}
					}
				}
				JOINT LHoodieString
				{
					OFFSET 5.250500 16.397697 3.089900
					CHANNELS 3 Xrotation Yrotation Zrotation
					JOINT LHoodieString1
					{
						OFFSET 0.257700 -6.364304 3.694600
						CHANNELS 3 Xrotation Yrotation Zrotation
						JOINT LHoodieString2
						{
							OFFSET 0.000000 -9.643799 2.679100
							CHANNELS 3 Xrotation Yrotation Zrotation
							End Site
							{
								OFFSET 0.000000 10.009018 0.000000
							}
						}
					}
				}
				JOINT RHoodieString
				{
					OFFSET -5.250500 16.397697 3.089900
					CHANNELS 3 Xrotation Yrotation Zrotation
					JOINT RHoodieString1
					{
						OFFSET -0.257700 -6.364304 3.694600
						CHANNELS 3 Xrotation Yrotation Zrotation
						JOINT RHoodieString2
						{
							OFFSET 0.000000 -9.643799 2.679100
							CHANNELS 3 Xrotation Yrotation Zrotation
							End Site
							{
								OFFSET 0.000000 10.009018 0.000000
							}
						}
					}
				}
			}
			JOINT LBackpack_Strap
			{
				OFFSET 15.223200 -7.719803 -6.610900
				CHANNELS 3 Xrotation Yrotation Zrotation
				End Site
				{
					OFFSET 0.000000 16.040596 0.000000
				}
			}
			JOINT RBackpack_Strap
			{
				OFFSET -15.223000 -7.719803 -6.610900
				CHANNELS 3 Xrotation Yrotation Zrotation
				End Site
				{
					OFFSET 0.000000 16.040596 0.000000
				}
			}
		}
	}
	JOINT BoyFacialAnim_Joint
	{
		OFFSET 1.000000 -82.208099 -1.550900
		CHANNELS 3 Xrotation Yrotation Zrotation
		End Site
		{
			OFFSET 0.000000 30.012791 0.000000
		}
	}
}
MOTION
Frames: 4
Frame Time: 0.033333
-0.155257 77.263000 -0.546289 -6.087186 -43.034959 -4.015863 -0.000000 0.000001 0.000000 -27.324701 5.709839 13.930470 33.961490 -14.104912 -0.195809 -4.093682 0.703246 -8.147196 0.000000 -0.000000 0.000000 0.000000 -0.000000 0.000000 0.000001 -0.000001 0.000000 -4.369929 -13.690437 -15.665341 32.704353 -9.009027 -0.412971 -20.502794 -4.051899 17.142151 -0.000000 0.000001 -0.000000 -0.000000 0.000001 -0.000000 -0.000000 0.000000 -0.000001 5.835591 4.642063 -1.243015 11.839517 9.031703 -3.079605 11.839513 9.031707 -3.079605 -4.303138 -1.284330 0.197021 -6.271519 20.437787 -0.378350 -0.000001 0.000000 -0.000000 -0.000001 0.000000 -0.000000 -0.000001 0.000000 -0.000000 1.386280 -0.696151 -7.881040 -14.260099 2.394324 -63.277079 9.871798 -47.525003 5.927256 16.182998 0.922883 18.793764 9.163413 4.814179 -5.499009 -0.346189 0.039463 0.776401 0.000002 0.000001 0.000001 -0.903788 -6.980834 -3.808557 0.049984 0.803668 -16.414157 -0.000000 -0.000001 -0.000002 1.928102 9.687947 -14.537513 -0.430277 -1.553212 -21.882423 0.000000 -0.000001 0.000002 2.597126 14.902054 -31.342871 -0.589986 -2.700669 -32.012188 0.000000 0.000000 -0.000004 4.166939 18.499764 -34.986148 -0.706430 -5.777575 -39.372906 -0.000001 0.000001 0.000002 -0.000002 0.000001 -0.000001 1.402685 9.461285 9.791411 1.219669 -24.271323 60.532756 -6.660688 41.858329 8.041336 6.218121 12.320930 11.674198 -8.895571 -4.903241 -0.383704 7.881482 -19.203041 -2.858472 0.000001 -0.000001 -0.000002 -1.070291 -1.213934 4.525868 0.124570 -1.113875 16.932328 0.000001 0.000000 0.000000 -0.669289 -2.905352 12.729167 -0.666697 1.815668 30.578938 0.000000 0.000001 -0.000002 2.403683 -7.411447 21.762555 -1.010182 3.770951 37.430970 0.000001 0.000000 0.000002 3.486605 -10.060486 24.324342 -1.473023 7.880295 41.092658 -0.000003 -0.000001 0.000000 -0.000000 0.000000 -0.000003 0.000004 -0.000000 0.000000 0.000004 -0.000000 0.000000 0.000004 -0.000000 0.000000 0.000004 -0.000000 0.000000 0.000004 -0.000000 0.000000 0.000002 -0.000002 0.000001 0.000004 -0.000000 0.000000 0.000004 -0.000000 0.000000 0.000002 -0.000002 0.000001 -0.000000 -0.000001 0.000000 -0.000000 -0.000001 0.000000 -0.000000 0.000001 0.000000 
0.190995 77.177361 -0.622586 -4.789810 -43.163917 -3.348561 -0.000000 -0.000001 -0.000000 -28.632158 4.889443 13.628914 34.392444 -13.282870 0.042744 -3.982523 0.756845 -8.295447 0.000000 0.000002 0.000000 0.000000 0.000002 0.000000 -0.000001 -0.000003 0.000000 -5.760139 -12.895018 -15.494947 33.306103 -9.571206 -0.350720 -20.370033 -4.136152 17.283034 -0.000000 -0.000002 0.000000 -0.000000 -0.000002 0.000000 -0.000000 -0.000000 0.000000 5.840170 4.322287 -1.231168 11.833214 8.390646 -3.031211 11.833216 8.390645 -3.031207 -4.921768 -0.745161 0.377360 -5.471396 20.932040 -0.687780 0.000001 -0.000000 -0.000000 0.000001 -0.000000 -0.000000 0.000001 -0.000000 -0.000000 1.353762 -0.084325 -8.114184 -13.720318 3.472226 -62.042488 9.760810 -49.803308 6.772936 15.782011 1.131014 17.420821 8.067921 4.043875 -5.453798 -0.301951 0.170970 0.819838 0.000000 0.000002 -0.000001 -0.970864 -6.832762 -4.216661 0.042496 0.779593 -16.620005 -0.000000 0.000001 -0.000005 1.817798 9.240967 -14.606481 -0.417781 -1.517020 -21.527368 0.000004 -0.000000 -0.000002 2.431197 14.602659 -30.831979 -0.562338 -2.665496 -31.300254 -0.000003 0.000000 0.000003 4.037403 18.418307 -34.084338 -0.697925 -5.767807 -38.761815 0.000003 0.000003 0.000002 0.000002 0.000000 -0.000000 1.366461 8.740150 9.888894 0.198850 -22.093811 58.168992 -5.011557 43.032108 8.206157 5.405351 11.567834 11.095469 -9.232419 -4.215945 -0.575046 7.533220 -18.420547 -2.848721 -0.000001 -0.000001 0.000001 -1.139316 -0.943421 4.817700 0.121327 -1.103253 17.044078 -0.000000 0.000001 0.000005 -0.693712 -2.798399 12.820465 -0.631209 1.749710 29.737585 -0.000000 -0.000001 0.000001 2.425482 -7.476314 21.661264 -0.953215 3.698967 36.384332 0.000002 0.000002 -0.000001 3.634139 -10.362780 23.914053 -1.433621 7.834828 40.310202 -0.000002 -0.000004 -0.000002 -0.000002 -0.000001 0.000001 0.000001 0.000000 -0.000000 0.000001 0.000000 -0.000000 0.000001 0.000000 -0.000000 0.000001 0.000000 -0.000000 0.000001 0.000000 -0.000001 0.000001 -0.000001 0.000000 0.000001 0.000000 -0.000000 0.000001 0.000000 -0.000001 0.000001 -0.000001 0.000000 -0.000001 -0.000003 0.000001 -0.000001 -0.000003 0.000001 -0.000000 -0.000001 -0.000000 
1.279122 76.332977 -0.969427 -1.570455 -43.936291 -1.177274 -0.000000 -0.000001 0.000000 -33.472811 3.618875 13.132107 37.825318 -11.760307 0.165971 -4.544575 0.804180 -8.064142 -0.000000 -0.000002 -0.000000 -0.000000 -0.000002 -0.000000 0.000000 -0.000001 0.000000 -11.525724 -10.801822 -16.527712 38.281284 -9.612994 0.090451 -21.534067 -4.422074 17.639098 0.000000 0.000002 -0.000000 0.000000 0.000002 -0.000000 0.000000 0.000000 -0.000002 5.974935 3.848815 -1.185946 12.075088 7.433984 -2.865506 12.075095 7.433977 -2.865505 -6.660612 0.299510 0.536926 -5.325498 21.876567 -2.274107 0.000001 0.000000 0.000000 0.000001 0.000000 0.000000 0.000001 0.000000 0.000000 1.252084 0.485970 -8.859197 -12.869992 5.740205 -60.492001 9.031586 -55.126395 9.267079 15.229961 1.004850 16.019418 5.524522 1.964087 -5.820130 -0.247760 0.367469 0.901795 -0.000000 -0.000002 0.000002 -1.163235 -6.577587 -5.207463 0.022694 0.715459 -17.168575 -0.000001 -0.000000 -0.000002 1.564799 8.247268 -14.855455 -0.393909 -1.446653 -20.837534 -0.000002 0.000001 -0.000005 2.123268 13.943522 -29.812618 -0.515780 -2.589348 -29.823799 0.000001 -0.000001 0.000001 3.860133 18.271731 -32.223538 -0.680603 -5.747573 -37.507574 -0.000003 0.000003 0.000002 -0.000000 -0.000002 0.000001 1.316231 7.216581 9.790363 -0.809967 -19.980238 54.800629 -2.239956 48.498711 6.303060 5.749593 9.919113 10.167110 -10.148030 -2.510298 -0.821778 6.722958 -16.600795 -2.810046 0.000001 0.000000 -0.000003 -1.336313 -0.255519 5.512537 0.112535 -1.074801 17.343773 -0.000001 0.000002 0.000000 -0.762096 -2.561461 13.074546 -0.553870 1.607713 27.938663 -0.000002 -0.000002 -0.000002 2.487597 -7.666720 21.502733 -0.840928 3.539324 34.133034 -0.000002 0.000001 0.000004 4.018002 -11.122107 23.091809 -1.351710 7.736023 38.641624 -0.000002 -0.000001 -0.000003 -0.000001 0.000000 -0.000001 -0.000000 0.000000 0.000001 -0.000000 0.000000 0.000001 -0.000000 0.000000 0.000001 -0.000000 0.000000 0.000001 -0.000000 0.000000 0.000001 -0.000000 0.000002 0.000000 -0.000000 0.000000 0.000001 -0.000000 0.000000 0.000001 -0.000000 0.000002 0.000000 0.000001 -0.000001 -0.000000 0.000001 -0.000001 -0.000000 -0.000000 -0.000001 0.000000 
2.845751 74.390846 -1.479390 4.339191 -45.811322 2.600005 -0.000000 -0.000001 -0.000000 -42.948376 2.972071 14.790365 45.003778 -11.352845 -1.243193 -6.158723 0.747696 -6.600436 -0.000000 -0.000000 0.000000 -0.000000 -0.000000 0.000000 -0.000000 -0.000000 0.000001 -21.748553 -7.816203 -18.123591 47.117575 -7.691467 1.180166 -24.006573 -4.851091 17.452260 -0.000000 -0.000000 0.000000 -0.000000 -0.000000 0.000000 -0.000001 0.000001 -0.000001 6.131826 3.495735 -1.095239 12.367232 6.708964 -2.636880 12.367223 6.708968 -2.636884 -9.091259 1.912076 0.509193 -6.568143 23.495924 -4.590752 0.000001 0.000000 0.000000 0.000001 0.000000 0.000000 0.000001 0.000000 0.000000 1.117022 0.947321 -10.288302 -11.432802 9.087527 -59.442003 8.288952 -63.302227 12.656582 14.914191 -1.237028 17.461256 1.962090 -1.267430 -6.525855 -0.168438 0.650655 1.022169 0.000000 0.000000 0.000002 -1.450732 -6.194131 -6.662845 -0.004748 0.625824 -17.978356 0.000003 0.000001 -0.000003 1.204707 6.788114 -15.232859 -0.360128 -1.343502 -19.830732 -0.000000 0.000000 -0.000005 1.748201 12.954144 -28.334642 -0.451219 -2.475490 -27.664228 0.000002 -0.000002 -0.000001 3.656528 18.035092 -29.514788 -0.656232 -5.717373 -35.673583 -0.000003 -0.000002 -0.000001 0.000001 0.000003 -0.000000 1.237558 5.101780 9.589904 -0.935893 -19.051225 51.477896 2.163380 58.467451 1.865832 7.742089 9.809155 5.808766 -11.409257 0.010718 -1.077324 5.541636 -13.931068 -2.710081 0.000000 -0.000000 -0.000002 -1.653622 0.747869 6.539992 0.099867 -1.033518 17.779080 -0.000000 0.000000 0.000000 -0.860199 -2.213531 13.448877 -0.448802 1.395722 25.304381 0.000001 0.000000 0.000001 2.579579 -7.945640 21.274996 -0.691003 3.295829 30.836627 -0.000002 -0.000001 -0.000002 4.541840 -12.255635 21.897180 -1.236906 7.587036 36.199149 0.000000 -0.000001 -0.000002 -0.000003 0.000000 -0.000002 -0.000001 0.000001 -0.000000 -0.000001 0.000001 -0.000000 -0.000001 0.000001 -0.000000 -0.000001 0.000001 -0.000000 -0.000001 0.000001 -0.000002 -0.000003 0.000001 -0.000002 -0.000001 0.000001 -0.000000 -0.000001 0.000001 -0.000002 -0.000003 0.000001 -0.000002 0.000002 0.000001 -0.000001 0.000002 0.000001 -0.000001 -0.000000 -0.000001 -0.000000 
